Coordinates
version=1
nRows=7
nColumns=40
inDegrees=yes

Units are S.I. units (second, meters, Newtons, ...)
Angles are in degrees.

endheader
time	pelvis_tilt	pelvis_list	pelvis_rotation	pelvis_tx	pelvis_ty	pelvis_tz	hip_flexion_r	hip_adduction_r	hip_rotation_r	knee_angle_r	knee_angle_r_beta	ankle_angle_r	subtalar_angle_r	mtp_angle_r	hip_flexion_l	hip_adduction_l	hip_rotation_l	knee_angle_l	knee_angle_l_beta	ankle_angle_l	subtalar_angle_l	mtp_angle_l	lumbar_extension	lumbar_bending	lumbar_rotation	arm_flex_r	arm_add_r	arm_rot_r	elbow_flex_r	pro_sup_r	wrist_flex_r	wrist_dev_r	arm_flex_l	arm_add_l	arm_rot_l	elbow_flex_l	pro_sup_l	wrist_flex_l	wrist_dev_l
     58.46328571	     -5.23506799	     -5.33005385	      7.07788458	      1.10922676	      0.92279215	      0.50390021	      3.30237245	      1.63087296	    -19.12193579	     11.71552538	     11.71552538	     14.25020454	     -0.33051178	     -6.66014982	     28.12259918	     -8.51247140	     -2.12836199	     20.81429965	     20.81429965	      4.89003017	     -7.44493858	      4.39983406	     -9.64119359	      5.46247011	      3.14425585	     12.44659400	    -18.91694742	     -2.92280687	     42.83957532	     45.49268208	      0.00000000	      0.00000000	     -0.19633601	    -12.37834653	    -13.49908270	     46.24289638	     47.51306165	      0.00000000	      0.00000000
     58.47657143	     -5.16375356	     -5.23830103	      7.01799986	      1.11077622	      0.92218954	      0.50134375	      3.00834397	      1.38102429	    -18.57803190	     12.30031796	     12.30031796	     14.94570600	     -1.01644958	     -5.32837636	     27.81538826	     -8.27892458	     -1.83734243	     21.31491290	     21.31491290	      4.15578262	     -8.33717833	      2.69919906	     -9.46153606	      5.16833733	      2.97675308	     11.78914083	    -18.31164356	     -2.98011935	     42.87673798	     45.49588889	      0.00000000	      0.00000000	     -0.03840356	    -12.53179977	    -13.75551202	     45.28740320	     47.49337026	      0.00000000	      0.00000000
     58.48985714	     -4.99837083	     -5.12947760	      6.99234414	      1.11245169	      0.92204005	      0.49857649	      2.40826147	      1.12286082	    -18.48160320	     12.47361486	     12.47361486	     15.12547834	     -1.08073878	     -5.29388754	     27.41383877	     -8.07901408	     -1.76849257	     21.85593200	     21.85593200	      4.27800227	     -8.57508466	      2.49711721	     -9.39227322	      4.90897578	      2.81282590	     10.99418346	    -17.76685513	     -2.86648016	     42.66489796	     45.49297077	      0.00000000	      0.00000000	     -0.18236119	    -12.56290920	    -13.78285430	     45.16339224	     47.49063649	      0.00000000	      0.00000000
     58.50314286	     -4.83236307	     -4.99391500	      6.95431182	      1.11386090	      0.92194678	      0.49557355	      2.07321251	      0.72952963	    -18.32606601	     13.21370975	     13.21370975	     16.02808658	     -1.08379879	     -3.28842048	     27.09545093	     -7.76007290	     -1.36850306	     22.48839446	     22.48839446	      4.00212582	     -9.63492130	      1.38844981	     -9.37012515	      4.65567809	      2.96025561	     10.00271276	    -17.40267705	     -3.11253339	     43.01592134	     45.50098710	      0.00000000	      0.00000000	      0.45312945	    -12.55969395	    -13.94847468	     43.88353244	     47.41056516	      0.00000000	      0.00000000
     58.51642857	     -4.63448162	     -4.85626851	      6.93806409	      1.11537248	      0.92215222	      0.49244555	      1.52818023	      0.38636124	    -18.20464478	     13.53202900	     13.53202900	     16.06546085	     -1.22748434	     -3.26600232	     26.72148496	     -7.49048902	     -1.20847792	     23.12709699	     23.12709699	      4.37826548	     -9.99204077	      1.18643928	     -9.35745474	      4.40912959	      2.75498690	      9.24727879	    -16.86686300	     -2.99575235	     42.81616082	     45.49781938	      0.00000000	      0.00000000	      0.35539462	    -12.59636429	    -13.95488169	     43.78053843	     47.40603710	      0.00000000	      0.00000000
     58.52971429	     -4.43005865	     -4.72699426	      6.86141154	      1.11664199	      0.92233181	      0.48919015	      1.21645839	     -0.03763759	    -17.97018834	     14.29030420	     14.29030420	     16.18498981	     -1.56833467	     -3.20538372	     26.43826602	     -7.18684558	     -0.87659122	     23.95468704	     23.95468704	      4.86156869	    -10.78870525	      1.15099276	     -9.42403836	      4.20337538	      2.62159399	      8.63488041	    -16.46463399	     -2.88268402	     42.70041530	     45.49357415	      0.00000000	      0.00000000	      0.48975608	    -12.67523838	    -13.93695628	     43.57473190	     47.39564629	      0.00000000	      0.00000000
     58.54300000	     -4.28853847	     -4.69588772	      6.77795639	      1.11799099	      0.92281772	      0.48589479	      0.83640635	     -0.32834362	    -17.85680775	     14.72392426	     14.72392426	     16.02471387	     -1.68846670	     -3.14129286	     26.01230274	     -7.00044367	     -0.74006347	     24.38256377	     24.38256377	      5.41389335	    -11.19647963	      0.99838287	     -9.36863699	      4.12792482	      2.40813588	      7.88793023	    -16.02474423	     -2.76524511	     42.49931013	     45.49039666	      0.00000000	      0.00000000	      0.42369586	    -12.60106870	    -13.91228359	     43.45786511	     47.38885197	      0.00000000	      0.00000000
